<svg width="25" height="27" viewBox="0 0 25 27" fill="none" xmlns="http://www.w3.org/2000/svg">
<path d="M9.99558 15.2676L11.4296 17.2277L10.338 26.7669H0C0 26.7669 0.0642121 22.6505 0.492269 20.1897C0.620694 19.3621 1.13439 18.6652 1.88356 18.2949C4.25939 17.0753 9.54598 15.2676 9.54598 15.2676L9.99558 15.2676Z" fill="white"/>
<path d="M24.9999 26.7455H14.9187L13.5703 17.2277L15.0044 15.2676H15.4538C15.4538 15.2676 20.719 17.0752 23.1378 18.2949C23.8655 18.6651 24.3792 19.3621 24.5291 20.1897C24.9358 22.629 25 26.7454 25 26.7454L24.9999 26.7455Z" fill="white"/>
<path d="M12.5 13.5034C10.2312 13.5034 8.26202 11.8699 7.83394 9.58306L7.1062 5.77168C6.69952 2.72256 9.03257 0 12.0719 0H12.9281C15.9675 0 18.3004 2.72246 17.8939 5.79359L17.1661 9.60497C16.738 11.87 14.7689 13.5035 12.5 13.5035V13.5034Z" fill="white"/>
</svg>
