<svg width="63" height="78" viewBox="0 0 63 78" fill="none" xmlns="http://www.w3.org/2000/svg">
<path d="M14.8785 18.2431C13.7655 18.4372 13.2559 20.8173 13.745 23.5583C14.1941 26.0763 15.3265 28.0217 16.3778 28.1698C17.709 31.7559 19.8213 35.2429 22.4316 37.7863C23.9061 39.2317 25.5438 40.3731 27.2861 41.0683C28.4855 41.5405 29.7399 41.8077 31.0295 41.8077C32.3111 41.8077 33.5656 41.5453 34.765 41.0683C36.5714 40.3483 38.2629 39.1513 39.7779 37.6369C42.3242 35.0966 44.3869 31.664 45.6885 28.1402C46.6962 27.8446 47.7476 25.9621 48.1792 23.5554C48.6423 20.945 48.2052 18.6683 47.1956 18.291C47.2337 17.6532 47.2561 17.0063 47.2537 16.3498C47.2307 6.88927 41.6822 0.641344 32.9375 0.0563405C25.3129 -0.456915 19.5674 2.57433 16.9505 7.60768C16.0685 9.3028 15.5691 12.1696 15.3733 14.4728C15.0789 15.6716 14.9072 16.9188 14.9072 18.2083H14.9386C14.9386 18.2204 14.938 18.2289 14.935 18.2385C14.9132 18.2391 14.8993 18.2416 14.8782 18.2434L14.8785 18.2431ZM16.6268 21.1214C16.7344 20.7992 16.8801 20.5495 17.0688 20.4165C17.1486 20.3609 17.2344 20.3204 17.3227 20.3065C17.5306 20.272 17.747 20.3518 17.9604 20.5217H17.9623C17.9623 20.5054 17.9641 20.4879 17.9647 20.4733C18.0052 20.0762 18.3238 17.9331 19.6592 16.2342C20.6942 14.9151 22.3494 13.8639 24.9658 14.1038C24.9658 14.1038 30.2091 16.0352 34.9776 14.328C35.4909 14.3178 35.9914 14.3135 36.4509 14.3299C38.4241 14.4024 39.7783 15.4265 41.1953 16.0855C41.1469 15.4356 40.6439 14.77 40.6699 14.3282C40.896 14.3916 41.1004 14.4896 41.2999 14.5954C42.3191 15.6823 43.3082 17.5057 44.0898 20.4836V20.5175C44.0976 20.5169 44.0976 20.5169 44.1019 20.5151V20.5175L44.1158 20.5042C44.2179 20.4244 44.3231 20.3639 44.4259 20.3307C44.4815 20.3101 44.5359 20.3174 44.5915 20.3125C44.6381 20.3101 44.6901 20.2926 44.733 20.3011H44.7354C44.7856 20.3077 44.8376 20.3277 44.8835 20.3464C45.3708 20.5761 45.6507 21.4896 45.6265 22.6654C45.6199 23.0547 45.58 23.4749 45.5008 23.9101C45.4814 24.0262 45.4524 24.1253 45.4234 24.2366C45.1671 25.4142 44.6955 26.3808 44.1926 26.8089C44.0801 26.9068 43.9574 26.9751 43.8443 27.0132C43.7361 27.0495 43.6309 27.0646 43.5239 27.0459C43.4085 27.0277 43.2978 26.9661 43.1987 26.8736C41.989 30.6351 39.6832 34.3808 36.7766 36.6581C36.345 36.9918 35.9019 37.2959 35.4497 37.5631C34.0689 38.375 32.5818 38.852 31.0341 38.852C29.018 38.852 27.1052 38.0528 25.4011 36.7488C22.4394 34.4818 20.089 30.6864 18.8654 26.8731C18.7657 26.965 18.6533 27.0254 18.5354 27.0454C18.2857 27.0895 18.0191 26.9632 17.7664 26.7117C17.2501 26.196 16.7828 25.1586 16.5609 23.9114C16.5464 23.8298 16.5355 23.7518 16.5265 23.669C16.5289 22.8027 16.5694 21.9564 16.6268 21.1214Z" fill="white"/>
<path d="M0.670577 60.3265C2.58329 63.9483 10.4847 65.9307 19.5176 66.7904L18.4596 65.7306C16.3015 63.5735 16.3015 60.0605 18.4596 57.9036L21.8451 54.5182C22.8909 53.4729 24.2814 52.8967 25.7601 52.8967C27.2394 52.8973 28.6286 53.4741 29.6739 54.5193L31.2584 56.1056L32.8453 54.518C33.8906 53.474 35.2816 52.8984 36.7603 52.8984C38.2391 52.8984 39.6289 53.474 40.6735 54.518L44.0577 57.9035C45.1036 58.9487 45.6792 60.3385 45.6792 61.8191C45.6792 63.2966 45.103 64.687 44.0577 65.7311L42.9986 66.792C52.0347 65.933 59.9373 63.9495 61.8549 60.3276C62.119 59.8319 62.2768 59.2896 62.3905 58.7328C62.5797 57.7637 62.5646 56.7456 62.2829 55.7669C61.1814 51.9517 59.7904 49.3284 58.357 47.4817C55.5725 43.8853 52.6447 43.3062 51.3975 43.0667C51.2439 43.0389 51.1176 43.0129 51.0136 42.9888C49.6237 42.6647 48.0253 42.5704 46.6168 42.4888C45.4821 42.4211 44.4018 42.3624 43.5209 42.1865C42.4962 44.8967 37.4646 46.8656 31.2651 46.8656C25.0644 46.8656 20.0346 44.8966 19.011 42.1865C18.1253 42.3624 17.0425 42.4247 15.9115 42.4906C14.5023 42.5704 12.907 42.6647 11.516 42.9888C11.412 43.0129 11.2826 43.0383 11.1302 43.0667C9.9532 43.2947 7.27697 43.8079 4.63625 46.8898C3.04575 48.747 1.46671 51.5352 0.237581 55.7602C-0.0683233 56.8152 -0.0689286 57.9244 0.178938 58.9589C0.293196 59.4304 0.443119 59.8965 0.669831 60.3263L0.670577 60.3265Z" fill="white"/>
<path d="M41.4112 63.0865C42.1125 62.3853 42.1131 61.2493 41.4112 60.5475L38.027 57.1633C37.6758 56.8133 37.2169 56.6391 36.7581 56.6391C36.2986 56.6391 35.8386 56.8133 35.4885 57.1645L31.2567 61.3951L27.0255 57.1639C26.6755 56.812 26.2154 56.6367 25.7566 56.6367C25.2971 56.6367 24.8371 56.8126 24.487 57.1639L21.1016 60.5481C20.4015 61.2493 20.4003 62.3853 21.1022 63.0871L25.3334 67.3189L21.1022 71.5489C20.4009 72.2508 20.4009 73.3861 21.1016 74.0873L24.487 77.4715C24.8383 77.8216 25.2971 77.9969 25.756 77.9969C26.2154 77.9969 26.6749 77.8216 27.0255 77.4727L31.2567 73.2415L35.4879 77.4734C35.838 77.824 36.298 77.9993 36.7575 77.9993C37.2169 77.9993 37.6764 77.824 38.027 77.474L41.4112 74.0879C42.1131 73.3867 42.1131 72.2513 41.4112 71.5495L37.18 67.3177L41.4112 63.0865Z" fill="white"/>
</svg>
