<svg width="25" height="27" viewBox="0 0 25 27" fill="none" xmlns="http://www.w3.org/2000/svg">
<path d="M24.2699 5.89108C24.2653 5.87799 24.2601 5.86593 24.2545 5.85346C24.2501 5.84099 24.2449 5.82894 24.239 5.81709L20.9675 0.230886C20.8838 0.0879056 20.7301 0 20.5638 0H4.20623C4.04995 0 3.90411 0.0777227 3.81732 0.207195L0.0784491 5.7934C0.0682254 5.81086 0.0594628 5.82915 0.0519519 5.84785C0.0459014 5.86094 0.0388075 5.87196 0.0338001 5.88547H0.0335914C0.0131446 5.93555 0.00187798 5.98896 0 6.04278V6.05172V26.5345C0 26.6579 0.0492399 26.7764 0.136869 26.8637C0.224499 26.951 0.343425 27 0.467358 27H23.8353C23.9592 27 24.0782 26.951 24.1658 26.8637C24.2534 26.7764 24.3027 26.6579 24.3027 26.5345V6.05172C24.3016 5.99665 24.2906 5.9422 24.2699 5.89108ZM23.0216 5.5862H14.8837L14.1046 0.93103H20.2951L23.0216 5.5862ZM10.2817 6.51724H14.0205V11.6003L12.4432 10.3434C12.2725 10.2071 12.0297 10.2071 11.859 10.3434L10.2817 11.6003V6.51724ZM13.1574 0.93103L13.936 5.5862H10.3662L11.1448 0.93103H13.1574ZM4.45597 0.93103H10.1978L9.41873 5.5862H1.3401L4.45597 0.93103ZM23.3677 26.069H0.934486V6.51724H9.34694V12.569C9.34694 12.7479 9.44981 12.9112 9.61192 12.9888C9.77382 13.0663 9.96619 13.0445 10.1064 12.9324L12.1511 11.3031L14.1958 12.9324C14.336 13.0445 14.5283 13.0663 14.6902 12.9888C14.8524 12.9112 14.9552 12.7479 14.9552 12.569V6.51724H23.3677L23.3677 26.069ZM19.6288 17.2241H13.5532C13.2951 17.2241 13.0858 17.4326 13.0858 17.6897V23.7414C13.0858 23.8648 13.1351 23.9833 13.2227 24.0706C13.3103 24.1579 13.4292 24.2069 13.5532 24.2069H19.6288C19.7528 24.2069 19.8717 24.1579 19.9593 24.0706C20.047 23.9833 20.0962 23.8648 20.0962 23.7414V17.6897C20.0962 17.5662 20.047 17.4478 19.9593 17.3605C19.8717 17.2732 19.7528 17.2241 19.6288 17.2241ZM19.1615 23.2759H14.0205V18.1552H19.1615V23.2759ZM11.6837 19.0862C11.6837 19.2097 11.6345 19.3281 11.5469 19.4154C11.4592 19.5027 11.3403 19.5517 11.2164 19.5517H4.206C3.94791 19.5517 3.73864 19.3433 3.73864 19.0862C3.73864 18.8291 3.94791 18.6207 4.206 18.6207H11.2164C11.3403 18.6207 11.4592 18.6697 11.5469 18.757C11.6345 18.8443 11.6837 18.9628 11.6837 19.0862ZM11.6837 22.3448C11.6837 22.4683 11.6345 22.5867 11.5469 22.674C11.4592 22.7613 11.3403 22.8103 11.2164 22.8103H4.206C3.94791 22.8103 3.73864 22.6019 3.73864 22.3448C3.73864 22.0878 3.94791 21.8793 4.206 21.8793H11.2164C11.3403 21.8793 11.4592 21.9284 11.5469 22.0156C11.6345 22.1029 11.6837 22.2214 11.6837 22.3448ZM19.6288 14.8966C19.8869 14.8966 20.0962 15.105 20.0962 15.3621C20.0962 15.6191 19.8869 15.8276 19.6288 15.8276H4.206C3.94791 15.8276 3.73864 15.6191 3.73864 15.3621C3.73864 15.105 3.94791 14.8966 4.206 14.8966H19.6288Z" fill="white"/>
</svg>
