<svg width="85" height="72" viewBox="0 0 85 72" fill="none" xmlns="http://www.w3.org/2000/svg">
<path fill-rule="evenodd" clip-rule="evenodd" d="M83.3617 52.6567L55.7323 8.22323C52.5461 3.64439 48.4563 0 42.512 0C36.5676 0 32.4779 3.64439 29.2917 8.22323L1.51954 52.8903C-0.572876 57.0954 -0.572876 62.0013 1.94754 66.0662C4.23018 69.6639 8.12969 72 12.4572 72H72.5667C76.8467 72 80.7938 69.6639 83.0288 66.0662C85.5493 62.048 85.6444 56.8151 83.3617 52.6567ZM55.3994 33.4069C56.5882 34.575 56.5882 36.4906 55.3994 37.6119L48.9319 43.9663L55.3994 50.2738C56.5882 51.4419 56.5882 53.3576 55.3994 54.5256L53.2594 56.6282C52.0705 57.7962 50.1208 57.7962 48.9319 56.6282L42.512 50.2738L36.0445 56.6282C34.9032 57.7962 32.9534 57.7962 31.7645 56.6282L29.6246 54.5256C28.4357 53.3576 28.4357 51.4419 29.6246 50.2738L36.0445 43.9663L29.6246 37.6119C28.4357 36.4906 28.4357 34.575 29.6246 33.4069L31.7645 31.3043C32.9534 30.1363 34.9032 30.1363 36.0445 31.3043L42.512 37.6119L48.9319 31.3043C50.1208 30.1363 52.0705 30.1363 53.2594 31.3043L55.3994 33.4069Z" fill="black"/>
</svg>
