<svg width="63" height="87" viewBox="0 0 63 87" fill="none" xmlns="http://www.w3.org/2000/svg">
<path fill-rule="evenodd" clip-rule="evenodd" d="M8.22461 0C7.96281 0 7.68511 0.056 7.44331 0.15625C7.20151 0.25644 7.00361 0.40863 6.81831 0.59375C6.63321 0.77886 6.48111 1.00814 6.38091 1.25C6.28071 1.49186 6.22461 1.73821 6.22461 2V77.4688C6.22461 77.7305 6.28061 77.977 6.38091 78.2188C6.48101 78.4606 6.63321 78.6899 6.81831 78.875C7.00351 79.0601 7.20151 79.2123 7.44331 79.3125C7.68511 79.4127 7.96281 79.4688 8.22461 79.4688H22.6621C22.9239 79.4688 23.1703 79.4127 23.4121 79.3125C23.654 79.2123 23.8831 79.0601 24.0683 78.875C24.2535 78.6899 24.4056 78.4606 24.5059 78.2188C24.606 77.977 24.6621 77.7305 24.6621 77.4688V70.6562C24.6621 66.9479 27.6726 63.9376 31.3809 63.9376C35.0892 63.9376 38.1309 66.9479 38.1309 70.6562V77.4688C38.1309 77.7305 38.1559 77.977 38.2559 78.2188C38.356 78.4606 38.5082 78.6899 38.6933 78.875C38.8785 79.0601 39.1077 79.2123 39.3496 79.3125C39.5914 79.4127 39.8691 79.4688 40.1309 79.4688H54.5683C54.8301 79.4688 55.0766 79.4127 55.3183 79.3125C55.5602 79.2123 55.7894 79.0601 55.9746 78.875C56.1597 78.6899 56.3119 78.4606 56.4121 78.2188C56.5123 77.977 56.5683 77.7305 56.5683 77.4688V2C56.5683 1.73821 56.5123 1.49186 56.4121 1.25C56.3119 1.00814 56.1597 0.77886 55.9746 0.59375C55.7894 0.40863 55.5602 0.25644 55.3183 0.15625C55.0766 0.05605 54.8301 3e-05 54.5683 0H8.22461ZM18.2559 8.84375H23.0683C23.3302 8.84378 23.5766 8.89985 23.8183 9C24.0602 9.10019 24.2894 9.25238 24.4746 9.4375C24.6597 9.62261 24.8119 9.82064 24.9121 10.0625C25.0123 10.3044 25.0683 10.582 25.0683 10.8438V15.625C25.0683 15.8868 25.0123 16.1644 24.9121 16.4062C24.8119 16.6481 24.6597 16.8461 24.4746 17.0312C24.2894 17.2164 24.0602 17.3686 23.8183 17.4688C23.5766 17.5689 23.3302 17.625 23.0683 17.625H18.2559C17.994 17.625 17.7476 17.5689 17.5059 17.4688C17.264 17.3686 17.0348 17.2164 16.8496 17.0312C16.6645 16.8461 16.5123 16.6481 16.4121 16.4062C16.3119 16.1644 16.2559 15.8868 16.2559 15.625V10.8438C16.2559 10.582 16.3119 10.3044 16.4121 10.0625C16.5123 9.82064 16.6645 9.62261 16.8496 9.4375C17.0348 9.25238 17.264 9.10019 17.5059 9C17.7476 8.8998 17.994 8.84375 18.2559 8.84375ZM39.6933 8.84375H44.5059C44.7676 8.84378 45.014 8.89985 45.2559 9C45.4977 9.10019 45.7269 9.25238 45.9121 9.4375C46.0972 9.62261 46.2494 9.82064 46.3496 10.0625C46.4498 10.3044 46.5059 10.582 46.5059 10.8438V15.625C46.5059 15.8868 46.4499 16.1644 46.3496 16.4062C46.2494 16.6481 46.0972 16.8461 45.9121 17.0312C45.7269 17.2164 45.4977 17.3686 45.2559 17.4688C45.014 17.5689 44.7676 17.625 44.5059 17.625H39.6933C39.4316 17.625 39.1852 17.5689 38.9433 17.4688C38.7015 17.3686 38.4723 17.2164 38.2871 17.0312C38.102 16.8461 37.9498 16.6481 37.8496 16.4062C37.7494 16.1644 37.6933 15.8868 37.6933 15.625V10.8438C37.6933 10.582 37.7493 10.3044 37.8496 10.0625C37.9498 9.82064 38.102 9.62261 38.2871 9.4375C38.4723 9.25238 38.7015 9.10019 38.9433 9C39.1852 8.8998 39.4316 8.84375 39.6933 8.84375ZM18.2559 28.875H23.0683C23.3302 28.875 23.5766 28.9311 23.8183 29.0312C24.0602 29.1314 24.2894 29.2836 24.4746 29.4688C24.6597 29.6539 24.8119 29.8831 24.9121 30.125C25.0123 30.3669 25.0683 30.6132 25.0683 30.875V35.6875C25.0683 35.9493 25.0123 36.1956 24.9121 36.4375C24.8119 36.6794 24.6597 36.9086 24.4746 37.0938C24.2894 37.2789 24.0602 37.4311 23.8183 37.5312C23.5766 37.6314 23.3302 37.6875 23.0683 37.6875H18.2559C17.994 37.6875 17.7476 37.6314 17.5059 37.5312C17.264 37.4311 17.0348 37.2789 16.8496 37.0938C16.6645 36.9086 16.5123 36.6794 16.4121 36.4375C16.3119 36.1956 16.2559 35.9493 16.2559 35.6875V30.875C16.2559 30.6132 16.3119 30.3669 16.4121 30.125C16.5123 29.8831 16.6645 29.6539 16.8496 29.4688C17.0348 29.2836 17.264 29.1314 17.5059 29.0312C17.7476 28.9311 17.994 28.875 18.2559 28.875ZM39.6933 28.875H44.5059C44.7676 28.875 45.014 28.9311 45.2559 29.0312C45.4977 29.1314 45.7269 29.2836 45.9121 29.4688C46.0972 29.6539 46.2494 29.8831 46.3496 30.125C46.4498 30.3669 46.5059 30.6132 46.5059 30.875V35.6875C46.5059 35.9493 46.4499 36.1956 46.3496 36.4375C46.2494 36.6794 46.0972 36.9086 45.9121 37.0938C45.7269 37.2789 45.4977 37.4311 45.2559 37.5312C45.014 37.6314 44.7676 37.6875 44.5059 37.6875H39.6933C39.4316 37.6875 39.1852 37.6314 38.9433 37.5312C38.7015 37.4311 38.4723 37.2789 38.2871 37.0938C38.102 36.9086 37.9498 36.6794 37.8496 36.4375C37.7494 36.1956 37.6933 35.9493 37.6933 35.6875V30.875C37.6933 30.6132 37.7493 30.3669 37.8496 30.125C37.9498 29.8831 38.102 29.6539 38.2871 29.4688C38.4723 29.2836 38.7015 29.1314 38.9433 29.0312C39.1852 28.9311 39.4316 28.875 39.6933 28.875ZM18.2559 48.9062H23.0683C23.3302 48.9063 23.5766 48.9623 23.8183 49.0626C24.0602 49.1628 24.2894 49.315 24.4746 49.5001C24.6597 49.6852 24.8119 49.8832 24.9121 50.1251C25.0123 50.3669 25.0683 50.6445 25.0683 50.9062V55.6876C25.0683 55.9494 25.0123 56.227 24.9121 56.4688C24.8119 56.7106 24.6597 56.9086 24.4746 57.0938C24.2894 57.279 24.0602 57.4311 23.8183 57.5312C23.5766 57.6314 23.3302 57.6876 23.0683 57.6876H18.2559C17.994 57.6876 17.7476 57.6315 17.5059 57.5312C17.264 57.4311 17.0348 57.279 16.8496 57.0938C16.6645 56.9086 16.5123 56.7106 16.4121 56.4688C16.3119 56.227 16.2559 55.9494 16.2559 55.6876V50.9062C16.2559 50.6445 16.3119 50.3669 16.4121 50.1251C16.5123 49.8832 16.6645 49.6852 16.8496 49.5001C17.0348 49.315 17.264 49.1628 17.5059 49.0626C17.7476 48.9624 17.994 48.9062 18.2559 48.9062ZM39.6933 48.9062H44.5059C44.7676 48.9063 45.014 48.9623 45.2559 49.0626C45.4977 49.1628 45.7269 49.315 45.9121 49.5001C46.0972 49.6852 46.2494 49.8832 46.3496 50.1251C46.4498 50.3669 46.5059 50.6445 46.5059 50.9062V55.6876C46.5059 55.9494 46.4499 56.227 46.3496 56.4688C46.2494 56.7106 46.0972 56.9086 45.9121 57.0938C45.7269 57.279 45.4977 57.4311 45.2559 57.5312C45.014 57.6314 44.7676 57.6876 44.5059 57.6876H39.6933C39.4316 57.6876 39.1852 57.6315 38.9433 57.5312C38.7015 57.4311 38.4723 57.279 38.2871 57.0938C38.102 56.9086 37.9498 56.7106 37.8496 56.4688C37.7494 56.227 37.6933 55.9494 37.6933 55.6876V50.9062C37.6933 50.6445 37.7493 50.3669 37.8496 50.1251C37.9498 49.8832 38.102 49.6852 38.2871 49.5001C38.4723 49.315 38.7015 49.1628 38.9433 49.0626C39.1852 48.9624 39.4316 48.9062 39.6933 48.9062Z" fill="black"/>
<path fill-rule="evenodd" clip-rule="evenodd" d="M2.0285 82.01C1.7643 82.01 1.4995 82.055 1.2544 82.154C1.0093 82.253 0.784 82.4002 0.5959 82.5857C0.4078 82.7711 0.256899 82.9943 0.154999 83.238C0.0529988 83.4817 0 83.7458 0 84.01C0 84.2742 0.0529988 84.5382 0.154999 84.7819C0.256899 85.0257 0.4078 85.2488 0.5959 85.4343C0.784 85.6198 1.0093 85.7674 1.2544 85.8659C1.4995 85.9649 1.7643 86.0137 2.0285 86.01H60.7385C61.0027 86.01 61.2675 85.964 61.5126 85.8659C61.7577 85.7669 61.983 85.6198 62.1711 85.4343C62.3592 85.2488 62.5101 85.0257 62.612 84.7819C62.714 84.5382 62.767 84.2742 62.767 84.01C62.767 83.7458 62.714 83.4817 62.612 83.238C62.5101 82.9943 62.3592 82.7711 62.1711 82.5857C61.983 82.4002 61.7577 82.2525 61.5126 82.154C61.2675 82.055 61.0027 82.0062 60.7385 82.01H2.0285Z" fill="black"/>
</svg>
