<svg width="112" height="80" viewBox="0 0 112 80" fill="none" xmlns="http://www.w3.org/2000/svg">
<path d="M13.0704 18.7079C12.0454 17.9392 11.7892 16.6574 12.3017 15.6322C13.0704 14.6072 14.3523 14.351 15.6336 14.8635C25.1169 21.2711 34.8562 27.9348 44.3396 34.3421C46.9028 35.8797 49.7216 35.8797 52.0285 34.3421C61.768 27.9345 71.2511 21.2708 80.9905 14.8635C82.0155 14.351 83.5537 14.6072 84.0662 15.6322C84.835 16.6572 84.5787 17.9391 83.5537 18.7079L64.331 31.5225L72.7886 39.2114C77.1455 35.3671 82.7844 32.8038 88.9344 32.8038C89.9594 32.8038 90.985 32.8038 92.0102 33.0601V12.8134C92.0102 8.20021 88.1658 4.612 83.8088 4.612H12.8141C8.20095 4.612 4.61274 8.20021 4.61274 12.8134V54.846C4.61274 59.4592 8.20095 63.0474 12.8141 63.0474H66.8917C66.1229 60.9968 65.8667 58.4342 65.8667 55.871C65.8667 51.0015 67.4042 46.6446 69.9674 42.7996L60.4841 34.0857L54.5889 37.9301C50.7446 40.7495 45.8751 40.4933 42.0307 37.9301L36.1356 34.0857L15.8889 52.5388C14.8639 53.3075 13.3256 53.3075 12.557 52.2825C11.7882 51.5137 11.7882 49.9756 12.8132 49.2068L32.2919 31.5217L13.0692 18.7071L13.0704 18.7079ZM96.366 34.0856C105.592 37.1613 112 45.8752 112 55.8715C112 68.6861 101.748 79.1951 88.9341 79.1951C80.4765 79.1951 73.0439 74.5819 68.9434 67.6618H12.8146C5.63816 67.6618 0 62.023 0 54.8472V12.8146C0 5.63816 5.6388 0 12.8146 0H83.8092C90.7293 0 96.3675 5.6388 96.3675 12.8146V34.0869L96.366 34.0856ZM88.9334 37.4175C78.6814 37.4175 70.2244 45.6189 70.2244 55.8706C70.2244 66.3789 78.6819 74.5796 88.9334 74.5796C99.1854 74.5796 107.386 66.3782 107.386 55.8706C107.386 45.6186 99.1851 37.4175 88.9334 37.4175Z" fill="black"/>
<path d="M79.4514 57.6648C78.4264 56.6398 78.4264 55.3579 79.4514 54.3329C80.2201 53.5641 81.7583 53.5641 82.5271 54.3329L86.3715 57.9211L95.0854 49.2072C96.1104 48.1822 97.3923 48.1822 98.4172 49.2072C99.186 49.976 99.186 51.5141 98.4172 52.283L87.9089 62.7913C86.8839 63.8163 85.602 63.8163 84.577 62.7913L79.4514 57.6656V57.6648Z" fill="black"/>
</svg>
