<svg width="74" height="80" viewBox="0 0 74 80" fill="none" xmlns="http://www.w3.org/2000/svg">
<path d="M73.75 15.46H51V29.29C51 29.4889 50.921 29.6796 50.7803 29.8203C50.6397 29.9609 50.4489 30.04 50.25 30.04H40.5C40.3011 30.04 40.1103 29.9609 39.9697 29.8203C39.829 29.6796 39.75 29.4889 39.75 29.29V15.46H17V45.87C21.3528 46.0706 25.473 47.8924 28.5504 50.9773C31.6279 54.0621 33.4398 58.1867 33.63 62.54H73.75V15.46Z" fill="black"/>
<path d="M50.2002 0.790039L50.9202 13.96H73.4602L69.1002 0.790039H50.2002Z" fill="black"/>
<path d="M39.79 13.96L40.51 0.790039H21.61L17.25 13.96H39.79Z" fill="black"/>
<path d="M41.29 13.96H49.42L48.69 0.790039H42.02L41.29 13.96Z" fill="black"/>
<path d="M49.47 15.46H41.25V28.53H49.47V15.46Z" fill="black"/>
<path d="M16.21 47.3301C13.0455 47.3301 9.95203 48.2685 7.32085 50.0266C4.68966 51.7847 2.6389 54.2835 1.4279 57.2071C0.216893 60.1308 -0.0999599 63.3478 0.517404 66.4515C1.13477 69.5552 2.65862 72.4061 4.89626 74.6438C7.1339 76.8814 9.98483 78.4053 13.0885 79.0226C16.1922 79.64 19.4093 79.3232 22.3329 78.1122C25.2565 76.9011 27.7554 74.8504 29.5135 72.2192C31.2716 69.588 32.21 66.4946 32.21 63.3301C32.21 59.0866 30.5243 55.017 27.5237 52.0164C24.5231 49.0158 20.4534 47.3301 16.21 47.3301ZM23.81 69.8301C23.9504 69.9707 24.0293 70.1613 24.0293 70.3601C24.0293 70.5588 23.9504 70.7495 23.81 70.8901C23.6693 71.0305 23.4787 71.1094 23.28 71.1094C23.0812 71.1094 22.8906 71.0305 22.75 70.8901L16.21 64.3501L9.66997 70.8901C9.60072 70.9602 9.51817 71.0158 9.42716 71.0535C9.33615 71.0913 9.23851 71.1105 9.13997 71.1101C9.04118 71.1123 8.94302 71.0939 8.85175 71.056C8.76049 71.0181 8.67814 70.9616 8.60997 70.8901C8.53921 70.8211 8.48297 70.7387 8.44458 70.6477C8.40618 70.5567 8.3864 70.4589 8.3864 70.3601C8.3864 70.2613 8.40618 70.1635 8.44458 70.0725C8.48297 69.9814 8.53921 69.899 8.60997 69.8301L15.15 63.2901L8.60997 56.7501C8.53921 56.6811 8.48297 56.5987 8.44458 56.5077C8.40618 56.4167 8.3864 56.3189 8.3864 56.2201C8.3864 56.1213 8.40618 56.0235 8.44458 55.9325C8.48297 55.8414 8.53921 55.759 8.60997 55.6901C8.75059 55.5496 8.94122 55.4707 9.13997 55.4707C9.33872 55.4707 9.52934 55.5496 9.66997 55.6901L16.21 62.2301L22.75 55.6901C22.8921 55.5576 23.0802 55.4855 23.2745 55.4889C23.4688 55.4923 23.6542 55.571 23.7916 55.7085C23.929 55.8459 24.0077 56.0313 24.0111 56.2256C24.0146 56.4199 23.9425 56.6079 23.81 56.7501L17.27 63.2901L23.81 69.8301Z" fill="black"/>
</svg>
