<svg width="72" height="72" viewBox="0 0 72 72" fill="none" xmlns="http://www.w3.org/2000/svg">
<path d="M36 0C16.145 0 0 16.145 0 36C0 55.855 16.145 72 36 72C55.855 72 72 55.855 72 36C72 16.145 55.855 0 36 0ZM56.9542 26.0382L32.771 50.2214C32.1183 51.2176 31.0534 51.8359 29.8511 51.8359C28.7176 51.8359 27.584 51.2519 26.9313 50.2901L15.0458 38.4389C14.3931 37.7863 14.0496 36.9275 14.0496 36C14.0496 35.0725 14.3931 34.2137 15.0458 33.5611C16.3855 32.2214 18.5496 32.2214 19.8893 33.5611L29.8168 43.4886L52.1107 21.1947C52.729 20.542 53.6221 20.1641 54.5153 20.1641C55.4427 20.1641 56.3015 20.542 56.9542 21.1947C57.6069 21.813 57.9504 22.6718 57.9504 23.5992C57.9504 24.5267 57.6069 25.3855 56.9542 26.0382Z" fill="black"/>
</svg>
