<svg width="88" height="83" viewBox="0 0 88 83" fill="none" xmlns="http://www.w3.org/2000/svg">
<path fill-rule="evenodd" clip-rule="evenodd" d="M2.8632 41.4401C1.59858 39.9568 1.78225 37.7347 3.27343 36.4768L35.9469 8.9145C37.0476 7.986 37.1926 6.3282 37.3282 4.7795C37.3662 4.3443 37.4036 3.9176 37.4612 3.5183C37.5525 2.8846 37.8186 2.2681 38.2655 1.7439C38.9653 0.923033 39.9621 0.500493 40.9655 0.500003H47.0322L47.0345 0.502323L47.0369 0.504633C48.1013 0.450393 49.1781 0.872923 49.9207 1.7439C50.3677 2.2681 50.6337 2.8846 50.7251 3.5183C50.7826 3.9177 50.82 4.3443 50.8581 4.7795C50.9936 6.3282 51.1386 7.986 52.2393 8.9145L84.9128 36.4768C86.404 37.7347 86.5876 39.9568 85.323 41.4401C84.0584 42.9234 81.8244 43.1061 80.3332 41.8482L46.0558 12.9328C44.9235 11.9777 43.2627 11.9777 42.1304 12.9328L7.853 41.8482C6.3618 43.1061 4.1278 42.9234 2.8632 41.4401ZM0 78.9785C0 77.0337 1.58501 75.4571 3.54023 75.4571H84.4598C86.415 75.4571 88 77.0337 88 78.9785C88 80.9234 86.415 82.5 84.4598 82.5H3.54023C1.58501 82.5 0 80.9234 0 78.9785ZM10.6207 70.9295C10.6207 72.5965 11.9793 73.9479 13.6552 73.9479H19.7241C21.4 73.9479 22.7586 72.5965 22.7586 70.9295V46.7822C22.7586 45.1152 24.1172 43.7638 25.7931 43.7638H35.908C37.5839 43.7638 38.9425 45.1152 38.9425 46.7822V70.9295C38.9425 72.5965 40.3011 73.9479 41.977 73.9479H74.3448C76.0207 73.9479 77.3793 72.5965 77.3793 70.9295V43.149C77.3793 42.2625 76.9876 41.4209 76.3081 40.8474L45.9632 15.2367C44.8308 14.2809 43.1692 14.2809 42.0368 15.2367L11.6919 40.8474C11.0124 41.4209 10.6207 42.2626 10.6207 43.149V70.9295ZM49.0575 46.7822C49.0575 45.1152 50.4161 43.7638 52.092 43.7638H64.2299C65.9058 43.7638 67.2644 45.1152 67.2644 46.7822V52.819C67.2644 54.486 65.9058 55.8374 64.2299 55.8374H52.092C50.4161 55.8374 49.0575 54.486 49.0575 52.819V46.7822Z" fill="black"/>
</svg>
