<svg width="68" height="84" viewBox="0 0 68 84" fill="none" xmlns="http://www.w3.org/2000/svg">
<path d="M16.0641 19.7004C14.8623 19.9094 14.3121 22.4797 14.8395 25.4405C15.3238 28.1591 16.5471 30.2601 17.6826 30.4196C19.1208 34.2913 21.4001 38.0562 24.2197 40.803C25.8122 42.3635 27.5797 43.5973 29.4612 44.3466C30.7574 44.8564 32.1108 45.1435 33.5035 45.1435C34.8895 45.1435 36.2436 44.861 37.5366 44.3466C39.4884 43.568 41.3146 42.2763 42.9505 40.6417C45.6998 37.8989 47.927 34.1926 49.3333 30.3873C50.4218 30.0683 51.5573 28.0351 52.0234 25.4368C52.5228 22.6172 52.0514 20.1596 50.9616 19.7527C51.0007 19.0639 51.0267 18.366 51.0241 17.6558C50.9987 7.43969 45.0085 0.694256 35.5639 0.0609287C27.3303 -0.493749 21.1266 2.77957 18.3008 8.21518C17.3476 10.0447 16.8093 13.1416 16.5976 15.6279C16.2793 16.9235 16.0944 18.2692 16.0944 19.6617H16.1282C16.1282 19.6748 16.1276 19.6839 16.1243 19.6943C16.1015 19.6956 16.0866 19.6975 16.0638 19.7001L16.0641 19.7004ZM17.9514 22.8072C18.0679 22.4589 18.2242 22.1894 18.4286 22.0468C18.5152 21.9869 18.6076 21.9433 18.7027 21.927C18.9267 21.8886 19.161 21.9758 19.3915 22.1594H19.3941C19.3941 22.1418 19.3947 22.1223 19.396 22.1073C19.4397 21.6783 19.7834 19.3632 21.2255 17.5305C22.3433 16.1061 24.1298 14.9707 26.9553 15.2297C26.9553 15.2297 32.6167 17.3157 37.767 15.4726C38.3204 15.4615 38.8621 15.4569 39.3582 15.4745C41.489 15.5526 42.9506 16.6588 44.4804 17.3703C44.4284 16.6685 43.8847 15.9504 43.9127 15.4725C44.1575 15.5409 44.3776 15.647 44.5931 15.7609C45.6946 16.9348 46.7604 18.9034 47.606 22.1195V22.156C47.6145 22.156 47.6145 22.156 47.6191 22.1534V22.156L47.634 22.1417C47.7441 22.0557 47.858 21.9906 47.9693 21.9542C48.0292 21.932 48.0878 21.9412 48.1477 21.9346C48.1978 21.932 48.2551 21.9132 48.3007 21.9223H48.3033C48.3573 21.9294 48.4146 21.9509 48.4628 21.9711C48.9882 22.2191 49.2916 23.2061 49.2655 24.4762C49.2571 24.8975 49.2154 25.3506 49.1295 25.82C49.1099 25.9463 49.0774 26.0524 49.0461 26.1728C48.7701 27.445 48.2603 28.4873 47.7174 28.9501C47.5963 29.0563 47.4641 29.1305 47.3411 29.1715C47.2245 29.2106 47.1106 29.2268 46.9941 29.2066C46.871 29.1871 46.7506 29.1207 46.6438 29.0198C45.3378 33.0816 42.8483 37.1266 39.7084 39.586C39.2435 39.9461 38.765 40.2755 38.2768 40.5632C36.7852 41.4395 35.1798 41.9545 33.5066 41.9545C31.329 41.9545 29.2645 41.0919 27.424 39.683C24.2261 37.2339 21.6878 33.1369 20.3661 29.0191C20.258 29.1181 20.1363 29.1845 20.0093 29.206C19.7398 29.2535 19.4514 29.1161 19.1786 28.846C18.6207 28.2887 18.1168 27.169 17.8765 25.8218C17.8609 25.7333 17.8485 25.6493 17.8394 25.5595C17.8459 24.6226 17.8896 23.7086 17.9514 22.8068L17.9514 22.8072Z" fill="white"/>
<path d="M0.720641 65.1427C2.36776 68.2599 8.12556 70.2547 15.3345 71.4043C15.5129 70.1381 16.0877 68.9655 17.009 68.0437L20.5949 64.4577C21.7167 63.3379 23.2062 62.7221 24.7922 62.7221C26.3782 62.7221 27.8677 63.338 28.992 64.4611L31.0643 66.5334L38.5134 59.0843C39.6352 57.9645 41.1267 57.3473 42.7125 57.3473C44.2972 57.3473 45.7907 57.9645 46.9105 59.0863L50.4951 62.6702C52.8089 64.9861 52.8089 68.7535 50.4951 71.0693L49.8187 71.7458C58.1076 70.6676 64.9644 68.5941 66.7919 65.1443C67.0783 64.6098 67.2476 64.0232 67.3707 63.4217C67.5751 62.3761 67.5582 61.2759 67.2541 60.2192C66.0653 56.0994 64.5633 53.2668 63.014 51.2733C60.0089 47.3885 56.8474 46.7635 55.4997 46.5058C55.3344 46.4759 55.1977 46.4492 55.085 46.4219C53.5844 46.0716 51.8579 45.97 50.3371 45.8821C49.1125 45.8092 47.9451 45.7461 46.9939 45.5547C45.8859 48.4823 40.453 50.6086 33.7597 50.6086C27.0631 50.6086 21.6322 48.4823 20.5269 45.5547C19.5692 45.7461 18.4026 45.8125 17.1799 45.8841C15.6584 45.9701 13.9358 46.0716 12.4333 46.4219C12.3213 46.4492 12.182 46.4753 12.0179 46.5059C10.7465 46.752 7.85713 47.3066 5.00566 50.6347C3.28751 52.6391 1.58319 55.6503 0.257041 60.2134C-0.0730394 61.352 -0.0749891 62.5505 0.192588 63.6679C0.315634 64.175 0.479051 64.6789 0.721882 65.1431L0.720641 65.1427Z" fill="white"/>
<path d="M47.6369 68.2128C48.3797 67.47 48.3797 66.2669 47.6369 65.5247L44.0529 61.9407C43.6825 61.5703 43.1961 61.3848 42.7105 61.3848C42.2235 61.3848 41.7372 61.5697 41.3667 61.9407L31.0615 72.2426L26.1346 67.3162C25.7628 66.9457 25.2771 66.7602 24.7908 66.7602C24.3045 66.7602 23.8182 66.9451 23.4477 67.3162L19.8638 70.9002C19.1216 71.6423 19.1216 72.8461 19.8638 73.587L26.1359 79.8597L29.7192 83.443C30.089 83.8148 30.5753 83.9996 31.0616 83.9996C31.5479 83.9996 32.0342 83.8148 32.4066 83.4424L35.9899 79.8591L47.6369 68.2128Z" fill="white"/>
</svg>
