<svg width="158" height="128" viewBox="0 0 158 128" fill="none" xmlns="http://www.w3.org/2000/svg">
<path d="M110.703 13.3296C102.412 5.04026 91.2426 0.269227 79.5213 0.0110386C67.8004 -0.247011 56.4313 4.02774 47.7847 11.9448C39.1381 19.8618 33.8785 30.8099 33.1036 42.5088C32.6193 49.6483 33.8379 56.8013 36.6575 63.3783L33.7521 83.7151H33.7528C33.4934 85.5263 34.102 87.3535 35.3956 88.6472C36.6893 89.9408 38.5172 90.5501 40.3282 90.2907L60.665 87.3853H60.6644C66.3063 89.8043 72.384 91.0438 78.5231 91.0264C79.4918 91.0264 80.5571 91.0264 81.5738 90.9298C93.2663 90.1435 104.205 84.8778 112.114 76.2284C120.022 67.5791 124.288 56.2132 124.026 44.4971C123.763 32.7802 118.992 21.6164 110.705 13.3295L110.703 13.3296ZM120.164 47.6117C119.712 56.6454 116.332 65.2854 110.534 72.2286C104.736 79.1703 96.8349 84.0352 88.0266 86.0888C79.2178 88.1417 69.9794 87.271 61.7097 83.6083C61.4618 83.5009 61.195 83.4448 60.9248 83.4435C60.8349 83.4333 60.7437 83.4333 60.6539 83.4435L39.7844 86.4454C39.1785 86.5346 38.5658 86.3319 38.1328 85.8989C37.6998 85.4659 37.4971 84.8532 37.5863 84.2472L40.5687 63.3778C40.62 63.0191 40.57 62.6536 40.4234 62.3219C36.502 53.4341 35.811 43.4533 38.4712 34.1097C41.1314 24.7662 46.9746 16.647 54.9897 11.1564C63.0048 5.66651 72.6876 3.15155 82.3597 4.04734C92.0337 4.94241 101.09 9.19208 107.961 16.0601C112.081 20.1786 115.295 25.1134 117.396 30.5466C119.497 35.9798 120.44 41.7926 120.163 47.6116L120.164 47.6117Z" fill="#03A9F4"/>
<path d="M94.9851 57.4122V39.6988C94.9811 36.5353 94.0658 33.4402 92.3479 30.7826C90.6308 28.1258 88.1841 26.0202 85.3009 24.7178V20.3303C85.3009 17.9086 84.0093 15.6707 81.9118 14.4602C79.8143 13.249 77.2298 13.249 75.1323 14.4602C73.0348 15.6707 71.7432 17.9086 71.7432 20.3303V24.7178C68.8601 26.0202 66.4134 28.1258 64.6962 30.7826C62.9784 33.44 62.063 36.5353 62.059 39.6988V57.4122C59.9587 58.0364 58.2896 59.6367 57.5783 61.7093C56.867 63.781 57.2007 66.0691 58.4747 67.8518C59.7481 69.6346 61.8051 70.691 63.9958 70.6896H67.9665C69.2121 73.3945 71.4481 75.5183 74.2143 76.6221C76.9799 77.7259 80.0643 77.7259 82.8298 76.6221C85.5961 75.5183 87.8321 73.3945 89.0777 70.6896H93.0484C95.2391 70.691 97.296 69.6345 98.5694 67.8518C99.8435 66.0691 100.177 63.7812 99.4658 61.7093C98.7545 59.6368 97.0852 58.0365 94.9851 57.4122ZM75.6167 23.2373V20.3319C75.6167 19.2943 76.1706 18.3351 77.0697 17.8163C77.9682 17.2975 79.0761 17.2975 79.9745 17.8163C80.8736 18.3351 81.4275 19.2943 81.4275 20.3319V23.2373H75.6167ZM65.9325 39.7003C65.9325 35.2027 68.3319 31.047 72.2276 28.7975C76.1225 26.5487 80.9214 26.5487 84.8165 28.7975C88.7122 31.047 91.1116 35.2027 91.1116 39.7003V57.1319H65.9327L65.9325 39.7003ZM84.0039 71.3297C82.4462 72.88 80.3035 73.6954 78.1094 73.5738C75.9147 73.4515 73.876 72.4038 72.4993 70.6907H84.566C84.3815 70.9129 84.1978 71.1263 84.0039 71.3297ZM93.0492 66.8165H63.9965C62.9583 66.8165 61.9997 66.2626 61.4802 65.3641C60.9614 64.465 60.9614 63.3578 61.4802 62.4587C61.9997 61.5596 62.9582 61.0063 63.9965 61.0063H93.0492C94.0874 61.0063 95.046 61.5596 95.5655 62.4587C96.0843 63.3578 96.0843 64.465 95.5655 65.3641C95.046 66.2626 94.0875 66.8165 93.0492 66.8165Z" fill="#03A9F4"/>
<path d="M7.584 117.168C6.352 117.168 5.248 116.968 4.272 116.568C3.296 116.168 2.512 115.576 1.92 114.792C1.344 114.008 1.04 113.064 1.008 111.96H5.376C5.44 112.584 5.656 113.064 6.024 113.4C6.392 113.72 6.872 113.88 7.464 113.88C8.072 113.88 8.552 113.744 8.904 113.472C9.256 113.184 9.432 112.792 9.432 112.296C9.432 111.88 9.288 111.536 9 111.264C8.728 110.992 8.384 110.768 7.968 110.592C7.568 110.416 6.992 110.216 6.24 109.992C5.152 109.656 4.264 109.32 3.576 108.984C2.888 108.648 2.296 108.152 1.8 107.496C1.304 106.84 1.056 105.984 1.056 104.928C1.056 103.36 1.624 102.136 2.76 101.256C3.896 100.36 5.376 99.912 7.2 99.912C9.056 99.912 10.552 100.36 11.688 101.256C12.824 102.136 13.432 103.368 13.512 104.952H9.072C9.04 104.408 8.84 103.984 8.472 103.68C8.104 103.36 7.632 103.2 7.056 103.2C6.56 103.2 6.16 103.336 5.856 103.608C5.552 103.864 5.4 104.24 5.4 104.736C5.4 105.28 5.656 105.704 6.168 106.008C6.68 106.312 7.48 106.64 8.568 106.992C9.656 107.36 10.536 107.712 11.208 108.048C11.896 108.384 12.488 108.872 12.984 109.512C13.48 110.152 13.728 110.976 13.728 111.984C13.728 112.944 13.48 113.816 12.984 114.6C12.504 115.384 11.8 116.008 10.872 116.472C9.944 116.936 8.848 117.168 7.584 117.168ZM33.3416 103.464C35.0056 103.464 36.3256 103.968 37.3016 104.976C38.2936 105.984 38.7896 107.384 38.7896 109.176V117H34.7096V109.728C34.7096 108.864 34.4776 108.2 34.0136 107.736C33.5656 107.256 32.9416 107.016 32.1416 107.016C31.3416 107.016 30.7096 107.256 30.2456 107.736C29.7976 108.2 29.5736 108.864 29.5736 109.728V117H25.4936V109.728C25.4936 108.864 25.2616 108.2 24.7976 107.736C24.3496 107.256 23.7256 107.016 22.9256 107.016C22.1256 107.016 21.4936 107.256 21.0296 107.736C20.5816 108.2 20.3576 108.864 20.3576 109.728V117H16.2536V103.608H20.3576V105.288C20.7736 104.728 21.3176 104.288 21.9896 103.968C22.6616 103.632 23.4216 103.464 24.2696 103.464C25.2776 103.464 26.1736 103.68 26.9576 104.112C27.7576 104.544 28.3816 105.16 28.8296 105.96C29.2936 105.224 29.9256 104.624 30.7256 104.16C31.5256 103.696 32.3976 103.464 33.3416 103.464ZM40.8439 110.28C40.8439 108.904 41.0999 107.696 41.6119 106.656C42.1399 105.616 42.8519 104.816 43.7479 104.256C44.6439 103.696 45.6439 103.416 46.7479 103.416C47.6919 103.416 48.5159 103.608 49.2199 103.992C49.9399 104.376 50.4919 104.88 50.8759 105.504V103.608H54.9799V117H50.8759V115.104C50.4759 115.728 49.9159 116.232 49.1959 116.616C48.4919 117 47.6679 117.192 46.7239 117.192C45.6359 117.192 44.6439 116.912 43.7479 116.352C42.8519 115.776 42.1399 114.968 41.6119 113.928C41.0999 112.872 40.8439 111.656 40.8439 110.28ZM50.8759 110.304C50.8759 109.28 50.5879 108.472 50.0119 107.88C49.4519 107.288 48.7639 106.992 47.9479 106.992C47.1319 106.992 46.4359 107.288 45.8599 107.88C45.2999 108.456 45.0199 109.256 45.0199 110.28C45.0199 111.304 45.2999 112.12 45.8599 112.728C46.4359 113.32 47.1319 113.616 47.9479 113.616C48.7639 113.616 49.4519 113.32 50.0119 112.728C50.5879 112.136 50.8759 111.328 50.8759 110.304ZM62.0529 105.84C62.5329 105.104 63.1329 104.528 63.8529 104.112C64.5729 103.68 65.3729 103.464 66.2529 103.464V107.808H65.1249C64.1009 107.808 63.3329 108.032 62.8209 108.48C62.3089 108.912 62.0529 109.68 62.0529 110.784V117H57.9489V103.608H62.0529V105.84ZM75.6786 113.52V117H73.5906C72.1026 117 70.9426 116.64 70.1106 115.92C69.2786 115.184 68.8626 113.992 68.8626 112.344V107.016H67.2306V103.608H68.8626V100.344H72.9666V103.608H75.6546V107.016H72.9666V112.392C72.9666 112.792 73.0626 113.08 73.2546 113.256C73.4466 113.432 73.7666 113.52 74.2146 113.52H75.6786ZM93.0366 117H88.9326L82.0686 106.608V117H77.9646V100.152H82.0686L88.9326 110.592V100.152H93.0366V117ZM102.107 117.192C100.795 117.192 99.6114 116.912 98.5554 116.352C97.5154 115.792 96.6914 114.992 96.0834 113.952C95.4914 112.912 95.1954 111.696 95.1954 110.304C95.1954 108.928 95.4994 107.72 96.1074 106.68C96.7154 105.624 97.5474 104.816 98.6034 104.256C99.6594 103.696 100.843 103.416 102.155 103.416C103.467 103.416 104.651 103.696 105.707 104.256C106.763 104.816 107.595 105.624 108.203 106.68C108.811 107.72 109.115 108.928 109.115 110.304C109.115 111.68 108.803 112.896 108.179 113.952C107.571 114.992 106.731 115.792 105.659 116.352C104.603 116.912 103.419 117.192 102.107 117.192ZM102.107 113.64C102.891 113.64 103.555 113.352 104.099 112.776C104.659 112.2 104.939 111.376 104.939 110.304C104.939 109.232 104.667 108.408 104.123 107.832C103.595 107.256 102.939 106.968 102.155 106.968C101.355 106.968 100.691 107.256 100.163 107.832C99.6354 108.392 99.3714 109.216 99.3714 110.304C99.3714 111.376 99.6274 112.2 100.139 112.776C100.667 113.352 101.323 113.64 102.107 113.64ZM118.757 113.52V117H116.669C115.181 117 114.021 116.64 113.189 115.92C112.357 115.184 111.941 113.992 111.941 112.344V107.016H110.309V103.608H111.941V100.344H116.045V103.608H118.733V107.016H116.045V112.392C116.045 112.792 116.141 113.08 116.333 113.256C116.525 113.432 116.845 113.52 117.293 113.52H118.757ZM123.107 102.216C122.387 102.216 121.795 102.008 121.331 101.592C120.883 101.16 120.659 100.632 120.659 100.008C120.659 99.368 120.883 98.84 121.331 98.424C121.795 97.992 122.387 97.776 123.107 97.776C123.811 97.776 124.387 97.992 124.835 98.424C125.299 98.84 125.531 99.368 125.531 100.008C125.531 100.632 125.299 101.16 124.835 101.592C124.387 102.008 123.811 102.216 123.107 102.216ZM125.147 103.608V117H121.043V103.608H125.147ZM134.841 107.016H132.633V117H128.529V107.016H127.041V103.608H128.529V103.224C128.529 101.576 129.001 100.328 129.945 99.48C130.889 98.616 132.273 98.184 134.097 98.184C134.401 98.184 134.625 98.192 134.769 98.208V101.688C133.985 101.64 133.433 101.752 133.113 102.024C132.793 102.296 132.633 102.784 132.633 103.488V103.608H134.841V107.016ZM150.449 103.608L142.049 123.36H137.633L140.705 116.544L135.257 103.608H139.841L142.937 111.984L146.009 103.608H150.449Z" fill="#03A9F4"/>
</svg>
