<svg width="32" height="28" viewBox="0 0 32 28" fill="none" xmlns="http://www.w3.org/2000/svg">
<path d="M10.2561 0L8.6152 4.29276H2.87173C1.28059 4.29276 0 5.63302 0 7.29762V24.4687C0 26.1336 1.28089 27.4735 2.87173 27.4735H29.1283C30.7194 27.4735 32 26.1333 32 24.4687V7.29762C32 5.63271 30.7191 4.29276 29.1283 4.29276H23.3848L21.7439 0H10.2561ZM15.9996 7.72697C20.2898 7.72697 23.7945 11.3939 23.7945 15.8832C23.7945 20.3725 20.29 24.0395 15.9996 24.0395C11.7091 24.0395 8.20465 20.3725 8.20465 15.8832C8.20465 11.3939 11.7091 7.72697 15.9996 7.72697ZM15.9996 10.3028C13.0397 10.3028 10.6661 12.7861 10.6661 15.8834C10.6661 18.9808 13.0394 21.4641 15.9996 21.4641C18.9597 21.4641 21.333 18.9808 21.333 15.8834C21.333 12.7861 18.9597 10.3028 15.9996 10.3028Z" fill="white"/>
</svg>
